<?xml version="1.0" encoding="iso-8859-1"?>
<!-- Generator: Adobe Illustrator 22.1.0, SVG Export Plug-In . SVG Version: 6.00 Build 0)  -->
<svg version="1.1" id="Layer_1" xmlns="http://www.w3.org/2000/svg" xmlns:xlink="http://www.w3.org/1999/xlink" x="0px" y="0px"
	 viewBox="0 0 13 29" style="enable-background:new 0 0 13 29;" xml:space="preserve">
<g id="Albania">
	<path d="M11,16l-2-2v-3l1-1V6L9,4L7,3V1H6L4,2V0H3L0,3v4l3,1l-1,2v6l-1.5,1v2.5L2,21H0v1l4,3l1,2v2h2l1.5-2v-1.5L10,24l1-3h2v-5H11
		z M12,20h-1.721l-1.153,3.46L7.5,25.086v1.581L6.5,28H6v-1.236l-1.211-2.422L1.667,22h2.748L1.5,19.086v-1.551l1.5-1v-6.299
		l1.41-2.82L1,6.279V3.414l2-2v2.204l3-1.5v1.5l2.255,1.127L9,6.236v3.35l-1,1v3.828L10.586,17H12V20z"/>
</g>
</svg>
