<?xml version="1.0" encoding="iso-8859-1"?>
<!-- Generator: Adobe Illustrator 22.1.0, SVG Export Plug-In . SVG Version: 6.00 Build 0)  -->
<svg version="1.1" id="Layer_1" xmlns="http://www.w3.org/2000/svg" xmlns:xlink="http://www.w3.org/1999/xlink" x="0px" y="0px"
	 viewBox="0 0 34 28" style="enable-background:new 0 0 34 28;" xml:space="preserve">
<g id="Andorra">
	<path d="M32,9l-3-2V5l-4-1h-6l-3-1l-2-3h-2L9,1L8,0H6L5,2v4H2v2L1,9l1,2l-2,1v3l3-1l2,4l-2,2H1l-1,2h3v5l5,1h5l1-4l2,2l1-3h6v-4h1
		l1,1h4v-1l-1-3l2-5h2l2-1V9H32z M31.697,10h-2.375l-2.387,5.969L27.946,19h-2.532l-1-1H22v4h-5.721l-0.716,2.149l-2.105-2.105
		L12.219,27h-4.12L4,26.18V21H3.414l2.803-2.803l-2.71-5.42L1,13.613v-0.995l2.342-1.171l-1.125-2.25L3,8.414V7h3V2.236L6.618,1
		h0.968L8.73,2.144L12.162,1h1.303l1.894,2.84L18.838,5h6.039L28,5.781v1.754L31.697,10h0.067H31.697z"/>
</g>
</svg>
