<?xml version="1.0" encoding="iso-8859-1"?>
<!-- Generator: Adobe Illustrator 22.1.0, SVG Export Plug-In . SVG Version: 6.00 Build 0)  -->
<svg version="1.1" id="Layer_1" xmlns="http://www.w3.org/2000/svg" xmlns:xlink="http://www.w3.org/1999/xlink" x="0px" y="0px"
	 viewBox="0 0 34 28" style="enable-background:new 0 0 34 28;" xml:space="preserve">
<g id="Belarus">
	<path d="M31,18l3-2l-2-3h-2v-1l-1-1l-2-3l1-2l-1-1V3l-3-1l-2,1l-1-2l-4-1l-2,2h-1l-2,1v3h-1L9,7v5H6l-4,1l1,6l-2,1l-1,2l2,1v3h1
		l2-2h2l7,1v1h7v1h3l2,1v-2l1-2l3-1l-1-4l-1-1l1-1L31,18z M26.586,18l1.511,1.511l0.709,2.833l-2.515,0.838L25,25.764v0.618
		L24.236,26H22v-1h-7v-0.867L7.071,23H4.586L3,24.586v-2.204l-1.658-0.829l0.403-0.808l2.362-1.181l-0.97-5.818L6.123,13H10V7.618
		L11.236,7H13V3.618L14.236,3h1.178l1.893-1.893l3.005,0.751l1.241,2.483l2.524-1.262L26,3.721v1.693l0.783,0.783l-0.938,1.875
		l2.377,3.565L29,12.414V14h2.465l1.148,1.723l-1.686,1.124l-2.125-1.063L26.586,18z"/>
</g>
</svg>
