<?xml version="1.0" encoding="iso-8859-1"?>
<!-- Generator: Adobe Illustrator 22.1.0, SVG Export Plug-In . SVG Version: 6.00 Build 0)  -->
<svg version="1.1" id="Layer_1" xmlns="http://www.w3.org/2000/svg" xmlns:xlink="http://www.w3.org/1999/xlink" x="0px" y="0px"
	 viewBox="0 0 35 29" style="enable-background:new 0 0 35 29;" xml:space="preserve">
<g id="Belgium">
	<path d="M32,11h-3l-1-1l2-5h-1l-1-1h-3l-2-4h-5l-1,2l-4,2H9L8,2L0,6l3,5h1l2-1l1,2v3h4v2h3l1,1l-1,4h5l1-3h2l-1,3v2l5,2l1,3l3-1
		l1-2l-2-2l2-5h2l2-2v-2L32,11z M34,16.586L32.586,18h-2.263l-2.496,6.241l1.957,1.957l-0.492,0.985l-1.659,0.553l-0.83-2.491
		L22,23.323v-1.161L23.387,18h-4.108l-1,3h-2.999l0.827-3.307L14.414,16H12v-2H8v-2.236L6.447,8.658L3.764,10H3.566L1.413,6.412
		l6.14-3.07L8.382,5h4.854l4.509-2.255L18.618,1h3.764l2,4h3.204l0.955,0.955l-1.714,4.286L28.586,12H31.5l2.5,3.333V16.586z"/>
</g>
</svg>
