<?xml version="1.0" encoding="iso-8859-1"?>
<!-- Generator: Adobe Illustrator 22.1.0, SVG Export Plug-In . SVG Version: 6.00 Build 0)  -->
<svg version="1.1" id="Layer_1" xmlns="http://www.w3.org/2000/svg" xmlns:xlink="http://www.w3.org/1999/xlink" x="0px" y="0px"
	 viewBox="0 0 28 28" style="enable-background:new 0 0 28 28;" xml:space="preserve">
<g id="Bosnia_and_Herzegovina">
	<path d="M28,12l-2-2h-1V8l1-3V3h-2l-1,1h-1l-1-2h-4V1h-3v1h-2L9,0L8,1H5L4,3L2,0H0v5l1,1l3,7h2l4,5h1v3l8,7h1v-5h1v-2l1-1h2l-1-2
		l4-1v-2l-2-2h3V12z M22.586,12L26,15.414v0.805l-4.452,1.113L22.382,19h-0.796L20,20.586V22h-1v4.671l-7-6.125V17h-1.52l-4-5H4.659
		L1.843,5.429L1,4.586V1h0.465l2.659,3.988L5.618,2h2.796l0.713-0.713L11.697,3H15V2h1v1h4.382l1,2h2.032l1-1H25v0.838l-1,3V11
		h1.586l1,1H22.586z"/>
</g>
</svg>
