<?xml version="1.0" encoding="iso-8859-1"?>
<!-- Generator: Adobe Illustrator 22.1.0, SVG Export Plug-In . SVG Version: 6.00 Build 0)  -->
<svg version="1.1" id="Layer_1" xmlns="http://www.w3.org/2000/svg" xmlns:xlink="http://www.w3.org/1999/xlink" x="0px" y="0px"
	 viewBox="0 0 33 28.447" style="enable-background:new 0 0 33 28.447;" xml:space="preserve">
<g id="Croatia">
	<g>
		<g>
			<path d="M32,9l-1-1V7l-1-2h-1l-1,1l-4-1l-3-1V3l-5-3l-4,2v3l-2,1v2H8L6,7L5,8H0v2l2,2h1l1-3h2l2,1v2l1,4l4,4l1,1h2l3,1l3,3h2
				l-1-1l-2-3l-5-4l-2-3l-1-1v-3h1l1,1h1l1-2h2l2,1h8v2h2l1-1v-1h1V9H32z M2.313,10.899L1,9.586V9h1.946L2.313,10.899z M31,10.586
				L30.586,11H30V9h-8.764l-2-1h-2.854l-0.989,1.979L14.414,9H12v4.414l1.223,1.223l2.031,3.047l4.286,3.442L16.162,20h-1.748
				l-4.511-4.511L9,11.877V9.382L8.236,9H11V6.618l2-1v-3l2.956-1.478L20,3.566v1.154l3.684,1.228l4.623,1.159l1.086-1.086L30,7.236
				v1.178l1,1V10.586z"/>
		</g>
	</g>
	<g>
		<rect x="4" y="10" width="1" height="3"/>
	</g>
	<g>
		<rect x="6" y="10" width="1" height="1"/>
	</g>
	<g>
		<rect x="8.5" y="15.172" transform="matrix(0.7071 -0.7071 0.7071 0.7071 -10.0919 11.636)" width="1" height="5.657"/>
	</g>
	<g>
		<rect x="6" y="12.5" width="1" height="1"/>
	</g>
	<g>
		<rect x="5" y="14" width="1" height="1"/>
	</g>
	<g>
		<rect x="15" y="22" width="2" height="1"/>
	</g>
	<g>
		<rect x="14" y="24" width="2" height="1"/>
	</g>
	<g>
		<rect x="18" y="25" width="3" height="1"/>
	</g>
	<g>
		<rect x="24.5" y="24.764" transform="matrix(0.4472 -0.8944 0.8944 0.4472 -10.3299 37.2859)" width="1" height="4.472"/>
	</g>
</g>
</svg>
