<?xml version="1.0" encoding="iso-8859-1"?>
<!-- Generator: Adobe Illustrator 22.1.0, SVG Export Plug-In . SVG Version: 6.00 Build 0)  -->
<svg version="1.1" id="Layer_1" xmlns="http://www.w3.org/2000/svg" xmlns:xlink="http://www.w3.org/1999/xlink" x="0px" y="0px"
	 viewBox="0 0 46 28" style="enable-background:new 0 0 46 28;" xml:space="preserve">
<g id="Czech_Republic">
	<path d="M45,15l-1-3l-3-1l-2,1l-1-2h1V9h-3l-3-2v2l-1,2h-1l-3-3l1-2V5h-3l-4-2l-1-2h-2v2h-2V0h-2v2L6,7H4L2,8H0v2l3,3l-2,1l3,5h1
		l2,2l6,6h5v-2h1v-2h3l5,2h5v3h1v-2l2-2h3l3-2l1-3l2-3h2v-1H45z M43.465,15l-2.371,3.557l-0.934,2.802L37.697,23h-3.111L33,24.586
		V24h-5.808l-5-2H18v2h-1v2h-3.586l-8-8H4.566l-2.153-3.588l2.275-1.138L1,9.586V9h1.236l2-1h2.023L16,2.588V4h4V2h0.382
		l0.873,1.745L25.764,6h2.118l-1.099,2.197L30.586,12h2.032L34,9.236V8.869L35.697,10h1.185l1.671,3.342l2.524-1.262l2.133,0.711
		L43.946,15H43.465z"/>
</g>
</svg>
