<?xml version="1.0" encoding="iso-8859-1"?>
<!-- Generator: Adobe Illustrator 22.1.0, SVG Export Plug-In . SVG Version: 6.00 Build 0)  -->
<svg version="1.1" id="Layer_1" xmlns="http://www.w3.org/2000/svg" xmlns:xlink="http://www.w3.org/1999/xlink" x="0px" y="0px"
	 viewBox="0 0 19 28" style="enable-background:new 0 0 19 28;" xml:space="preserve">
<g id="Finland">
	<g>
		<path d="M16,17l1-1l-1-2v-3l-1-3l1-3l-1-1V1l-2-1h-1l-1,1v2H8L6,1L5,2l3,3v6l1,1l1,2l-5,5v4l-1,2l3,3l6-2l5-5l1-2L16,17z
			 M17.178,20.407l-4.718,4.719l-5.19,1.729l-2.053-2.053L6,23.236v-3.822l5.217-5.217l-1.395-2.79L9,10.586v-6L8.414,4H12V1.414
			L12.414,1h0.35L14,1.618v2.796l0.856,0.856L13.946,8L15,11.162v3.074l0.783,1.566l-1.353,1.353l3.281,2.188L17.178,20.407z"/>
	</g>
	<rect x="4" y="27" width="1" height="1"/>
	<rect x="3" y="26" width="1" height="1"/>
	<rect y="25" width="2" height="2"/>
</g>
</svg>
