<?xml version="1.0" encoding="iso-8859-1"?>
<!-- Generator: Adobe Illustrator 22.1.0, SVG Export Plug-In . SVG Version: 6.00 Build 0)  -->
<svg version="1.1" id="Layer_1" xmlns="http://www.w3.org/2000/svg" xmlns:xlink="http://www.w3.org/1999/xlink" x="0px" y="0px"
	 viewBox="0 0 23 28" style="enable-background:new 0 0 23 28;" xml:space="preserve">
<g id="Germany_2_">
	<path d="M23,13.375L22,12l-2-8h-1V3l0.544-0.912L19,1l-4,2h-2V2h-3L9,0H6l1,3H6v1H5V3H3v2h0.833L3.5,7H3v1h0.333L3,10H1l-1,5l1,7
		l4,1l-1,1l-1,3l3,1l1-1l3,1h6l1-0.5l1,0.5l1-1l-0.5-1l2.5-2v-1l-3-2l-1-4l5-2L23,13.375z M21.322,14.194l-5.503,2.201l1.305,5.222
		l2.866,1.911l-2.745,2.196l0.52,1.039L17,26.382L15.764,27h-5.602L6.73,25.855l-1,1l-1.465-0.488l0.609-1.827l2.082-2.082
		l-5.061-1.265l-0.881-6.165L1.82,11h2.027l0.667-4l0.333-2H7V4h1.387l-1-3h0.995l1,2H12v1h3.236l2.854-1.427L18,2.725V5h1.219
		l1.858,7.431l0.72,0.991L21.322,14.194z"/>
</g>
</svg>
