<?xml version="1.0" encoding="iso-8859-1"?>
<!-- Generator: Adobe Illustrator 22.1.0, SVG Export Plug-In . SVG Version: 6.00 Build 0)  -->
<svg version="1.1" id="Layer_1" xmlns="http://www.w3.org/2000/svg" xmlns:xlink="http://www.w3.org/1999/xlink" x="0px" y="0px"
	 viewBox="0 0 28 28" style="enable-background:new 0 0 28 28;" xml:space="preserve">
<g id="Greece_2_">
	<rect x="14" y="7" width="1" height="1"/>
	<rect y="8" width="1" height="2"/>
	<rect x="2" y="12" width="1" height="1"/>
	<rect x="2" y="14" width="1" height="1"/>
	<rect x="3" y="17" width="1" height="1"/>
	<rect x="18" y="8" width="1" height="1"/>
	<rect x="16" y="5" width="1" height="1"/>
	<rect x="20" y="13" width="1" height="2"/>
	<polygon points="20,11 22,10 23,12 22,12 	"/>
	<rect x="18" y="19" width="1" height="1"/>
	<rect x="17" y="17" width="1" height="1"/>
	<rect x="15" y="18" width="1" height="1"/>
	<rect x="15" y="21.5" width="1" height="1"/>
	<rect x="10" y="23" width="1" height="1"/>
	<polygon points="18,27 17,26 12,26 12,27 15,27 16,28 22,28 22,27 	"/>
	<rect x="22" y="21" width="1" height="1"/>
	<rect x="22" y="17" width="2" height="1"/>
	<polygon points="26,25 26,23 27,22 28,22 28,23 	"/>
	<rect x="15" y="11" width="1" height="1"/>
	<rect x="13" y="10" width="1" height="1"/>
	<rect x="19" y="5" width="1" height="1"/>
	<g>
		<path d="M20,0v1h1v1h-3l-3-1l-5,1L7,3H5v2L2,8v1l2,2l1,4l-1,1l2,2v2l1,1v-1h1v2h1v-1h1v1h1v-4h1v-2h1v1h1v-2l1,1h1h1v-1h-1.333
			L15,13h-2l-1-2l-2-4V5h1v1h1v2h1V7h1V6h1V5h-1V4.5L15,4h6l1-1V0H20z M14.764,3L13,3.882V5h-1V4H9v3.236L12.382,14H13v1h-2v2h-1v3
			H9v-1H7v-1.414L5.414,16l0.693-0.693l-1.205-4.818L3,8.586V8.414l3-3V4h1.162l3.095-1.031l4.678-0.937L17.838,3H14.764z"/>
	</g>
</g>
</svg>
