<?xml version="1.0" encoding="iso-8859-1"?>
<!-- Generator: Adobe Illustrator 22.1.0, SVG Export Plug-In . SVG Version: 6.00 Build 0)  -->
<svg version="1.1" id="Layer_1" xmlns="http://www.w3.org/2000/svg" xmlns:xlink="http://www.w3.org/1999/xlink" x="0px" y="0px"
	 viewBox="0 0 33 29" style="enable-background:new 0 0 33 29;" xml:space="preserve">
<g id="Kiribati_1_">
	<rect x="6" y="8" width="1" height="1"/>
	<g id="Kiribati">
		<path d="M32,24l-2-1l-9-3l-3-3v-5l1-3l2-1V6l-1-1h-3l-3-1l-3-3l-1-1H7L4,1l3,6l1-1L6,3l2-1l4,4v3h-1v1h2v2l-1,1l-2-1l-3,3l-1-1H3
			l-1,1v-2l4-2v-1l-5,2l-1,3l2,2l2-1h2l2,4l3,2l5,1h2l7,4l1,1l1.313,1H32l1-1L32,24z M31.586,28H27.65l-0.991-0.755l-1.047-1.047
			L18.266,22h-2.167l-4.709-0.941l-2.614-1.743l-1.559-3.118l2.98-2.98l2,1L14,12.414V9h-1V5.586L8.414,1h1.172l3.874,3.874
			L16.838,6h2.748L20,6.414v0.968l-1.817,0.909L17,11.838v5.576l3.46,3.46l9.156,3.052l1.525,0.763l0.751,3.005L31.586,28z"/>
	</g>
</g>
</svg>
