<?xml version="1.0" encoding="iso-8859-1"?>
<!-- Generator: Adobe Illustrator 22.1.0, SVG Export Plug-In . SVG Version: 6.00 Build 0)  -->
<svg version="1.1" id="Layer_1" xmlns="http://www.w3.org/2000/svg" xmlns:xlink="http://www.w3.org/1999/xlink" x="0px" y="0px"
	 viewBox="0 0 45 28" style="enable-background:new 0 0 45 28;" xml:space="preserve">
<g id="Hungary">
	<path d="M43,5V3h-1l-1-1h-4l-1-2l-3,1l-2-1l-2,1l-1,3l-3,1l-1-1h-2v1l-4,1v2l-4,1h-3L8,6H6v2H4V7H2v1h1v1h1v2l-2,1v4H0l1,3l3,3l1,2
		h2v2h2l2,2h5l1-1l3-1h2l1-2h8l1-1h2l7-14l1-1h2l1-2V5H43z M43.382,7h-1.796l-1.408,1.407L33.382,22h-1.796l-1,1h-8.204l-1,2h-1.544
		l-3.378,1.126L15.586,27h-4.172l-2-2H8v-2H5.618l-0.796-1.593L1.874,18.46L1.387,17H3v-4.382l2-1V9h2V7h0.586l3,3h3.537L19,8.781
		v-2l4-1V5h0.586l1.144,1.145l4.061-1.354l1.027-3.082L31,1.118l1.923,0.962l2.57-0.857L36.382,3h4.204l1,1H42v2h1.882L43.382,7z"/>
</g>
</svg>
