<?xml version="1.0" encoding="iso-8859-1"?>
<!-- Generator: Adobe Illustrator 22.1.0, SVG Export Plug-In . SVG Version: 6.00 Build 0)  -->
<svg version="1.1" id="Layer_1" xmlns="http://www.w3.org/2000/svg" xmlns:xlink="http://www.w3.org/1999/xlink" x="0px" y="0px"
	 viewBox="0 0 27 28" style="enable-background:new 0 0 27 28;" xml:space="preserve">
<g id="Ireland">
	<path d="M26,2h-4V0h-2v1h-4l-1,2h-2v1l2,1v1l-2,1h-2L9,5H6L5,7l3,2l-3,2v1l3,2v1l-4,3v3H0v1h2v1H1v1h2v1H1v1h2l1,2h5l1-2h4v-1h6
		l3-6v-3l-1-4h3l2-2V7L26,2z M26,9.586L24.586,11h-3.867L22,16.123v2.641L19.382,24H13v1H9.382l-1,2H4.618L4,25.764V23H3v-1h2v-3.5
		l4-3v-2.035L6.053,11.5L9.803,9L6.289,6.657L6.618,6h1.968l2,2h2.65L16,6.618V4.382L15.236,4h0.382l1-2H21v1h4.18L26,7.099V9.586z"
		/>
</g>
</svg>
