<?xml version="1.0" encoding="iso-8859-1"?>
<!-- Generator: Adobe Illustrator 22.1.0, SVG Export Plug-In . SVG Version: 6.00 Build 0)  -->
<svg version="1.1" id="Layer_1" xmlns="http://www.w3.org/2000/svg" xmlns:xlink="http://www.w3.org/1999/xlink" x="0px" y="0px"
	 viewBox="0 0 22 28" style="enable-background:new 0 0 22 28;" xml:space="preserve">
<g id="Italy">
	<path d="M18,15h1v-1h-3l-2-1l-1-3l-3-2V5l3-1h1V3V2h-1l-2-0.667V0h-1v1H8L6,2H5v1H3V2H2v1H0v5l1,2h1l1-2h1l2,1l1,3l4,4l4,2l3,3v2
		h-1v1h-7v2l3,1l2,1h1v-2l1-1h1l1-1h1v-1h1v-2h-1l-1-1l1-2l1,1v1h1v-2L18,15z M15,25.586v1.296l-1.616-0.808L11,25.279V25h4.586
		L15,25.586z M18.06,19.646l-2.467-2.468l-4-2L7.874,11.46L6.818,8.291L4.236,7H2.382L1.5,8.764l-0.5-1V4h5V3h0.236l2-1H10v0.055
		L12.838,3L9,4.279v4.256l3.16,2.106l1.022,3.067L15.764,15h0.569l2.944,2.208L18.06,19.646z"/>
	<path d="M3,17H2v5v1h1l1-1h1v-4v-2H4L3,17z M4,21H3.586L3,21.586V18h0.414L4,17.414V21z"/>
</g>
</svg>
