<?xml version="1.0" encoding="iso-8859-1"?>
<!-- Generator: Adobe Illustrator 22.1.0, SVG Export Plug-In . SVG Version: 6.00 Build 0)  -->
<svg version="1.1" id="Layer_1" xmlns="http://www.w3.org/2000/svg" xmlns:xlink="http://www.w3.org/1999/xlink" x="0px" y="0px"
	 viewBox="0 0 27 28" style="enable-background:new 0 0 27 28;" xml:space="preserve">
<g id="Liberia">
	<path d="M24,17v-1l-1-1h-2l-2-1l2-3V9l-2-4h-1v2l-1,1l-2,1V8l-2-1l1-3l-2-4H8L7,2H5v3L1,9l-1,2v1l4,2v1l3,1l8,8l4,2l5,1l1,1h1v-4
		l1-2v-4L24,17z M26,21.764l-1,2v2.822l-0.507-0.507l-5.166-1.033l-3.734-1.868L7.54,15.126L5,14.279v-0.897l-4-2v-0.146
		l0.822-1.644L6,5.414V3h1.618l1-2h2.764l1.539,3.077l-1.144,3.43L14,8.618v2l3.593-1.796L19,7.414V7.236l1,2v1.461l-2.46,3.69
		L20.764,16h1.822L23,16.414v1.307l3,1V21.764z"/>
</g>
</svg>
