<?xml version="1.0" encoding="iso-8859-1"?>
<!-- Generator: Adobe Illustrator 22.1.0, SVG Export Plug-In . SVG Version: 6.00 Build 0)  -->
<svg version="1.1" id="Layer_1" xmlns="http://www.w3.org/2000/svg" xmlns:xlink="http://www.w3.org/1999/xlink" x="0px" y="0px"
	 viewBox="0 0 24 29" style="enable-background:new 0 0 24 29;" xml:space="preserve">
<g id="Monaco">
	<path d="M23,3V1l-2-1v2l-1,1h-1l-3,1l-1,5l-3,3l-2-1l-1,2l-6,6v3H1l-1,2l7,5l3-3l-1-1H7v-2h1l3,1l3-1l1-2l-1-2l-3,1l-1-3l7-2v-3
		l1-3V7l3-2l1,2l2-1L23,3z M17,6.465v2.373l-1,3v2.408l-7.279,2.079l1.646,4.939l3.126-1.042L13.882,21l-0.591,1.183L11,22.946
		L8.162,22H6v4h2.586l-1.694,1.694l-5.615-4.012L1.618,23H4v-3.586l5.822-5.821l0.625-1.251l1.75,0.875l3.724-3.724l0.946-4.728
		L19.162,4H20v0.465L17,6.465z"/>
</g>
</svg>
