<?xml version="1.0" encoding="iso-8859-1"?>
<!-- Generator: Adobe Illustrator 22.1.0, SVG Export Plug-In . SVG Version: 6.00 Build 0)  -->
<svg version="1.1" id="Layer_1" xmlns="http://www.w3.org/2000/svg" xmlns:xlink="http://www.w3.org/1999/xlink" x="0px" y="0px"
	 viewBox="0 0 25 29" style="enable-background:new 0 0 25 29;" xml:space="preserve">
<g id="Montenegro">
	<path d="M22,9l-3-2h-2V6h-2l-1-1l-4-4V0H9v1H8V0H7H6v1h0.75L9,4H7L6,3L4,4L3,6v3H1v3l1,2v1l-1,1H0v2h3v1H1l1,2h4l3,4v2l4,2v-5l-1-1
		l1-2v-1l2-3v-2h2v3l4-1v-4h2v-1h2v-2L22,9z M24,11h-2v1h-2v4.219l-2,0.5V14h-4v2.697l-2,3v1.066l-1.217,2.434L12,24.414v2.968l-2-1
		v-1.715L6.5,20H4v-3H1.414L3,15.414v-1.65l-1-2V10h2V6.236l0.745-1.491l1.058-0.528L6.586,5H11L8.75,2h0.836l5,5H16v1h2.697
		l2.859,1.906L24,10.721V11z"/>
</g>
</svg>
