<?xml version="1.0" encoding="iso-8859-1"?>
<!-- Generator: Adobe Illustrator 22.1.0, SVG Export Plug-In . SVG Version: 6.00 Build 0)  -->
<svg version="1.1" id="Layer_1" xmlns="http://www.w3.org/2000/svg" xmlns:xlink="http://www.w3.org/1999/xlink" x="0px" y="0px"
	 viewBox="0 0 23 27" style="enable-background:new 0 0 23 27;" xml:space="preserve">
<g id="Netherlands">
	<rect x="8" y="4" width="1" height="2"/>
	<rect x="9" y="3" width="1" height="1"/>
	<rect x="11" y="2" width="1" height="1"/>
	<rect x="13" y="1" width="1" height="1"/>
	<rect x="15" width="1" height="1"/>
	<g id="_x3C_Path_x3E__3_">
		<path d="M21,3V2h-5l-4,2v4h1v2h1v1h-3v1.5L10,12v-2h1V9h-1V7H8l-1,6l-4,4h2v1H2l-1,1l-0.333,1H4v1H0.333L0,22l3,1l3-1v-1h4v1h3
			l1,1l-1,4h3v-3l1-3l-1-4h4v-2l1-1l1-2l-2-1v-1h2V8l1-2V4L21,3z M22,5.764l-1,2V9h-2v2.618l1.658,0.829l-0.48,0.96L19,14.586V16
			h-4.281l1.24,4.96L15,23.838V26h-0.719l0.827-3.307L13.414,21H11v-1H5v-1h1v-3H5.414l2.52-2.52L8.847,8H9v4.618l3,1.5l3-1.5V9h-1
			V7h-1V4.618L16.236,3H20v0.618l2,1V5.764z"/>
	</g>
</g>
</svg>
