<?xml version="1.0" encoding="iso-8859-1"?>
<!-- Generator: Adobe Illustrator 22.1.0, SVG Export Plug-In . SVG Version: 6.00 Build 0)  -->
<svg version="1.1" id="Layer_1" xmlns="http://www.w3.org/2000/svg" xmlns:xlink="http://www.w3.org/1999/xlink" x="0px" y="0px"
	 viewBox="0 0 27 26" style="enable-background:new 0 0 27 26;" xml:space="preserve">
<g id="Poland">
	<path d="M27,19l-2-4v-3l-2-1l1-2h2V7l-3-5H11V0L6,1L5,3L0,4l1,13l3,2v1l1,1h3l2,1l2,3l2-1v1h1l1-1h4v1l4,1l-1-3L27,19z M21,24.219
		V23h-5.414L15,23.586v-1.204l-2.658,1.329l-1.658-2.486L8.236,20H5.414L5,19.586v-1.121l-3.041-2.027L1.065,4.807l4.611-0.922l1-2
		L10,1.22V3h12.434L25,7.277V8h-1.618l-1.724,3.447L24,12.618v2.618l1.783,3.566l-3.927,3.927l0.619,1.858L21,24.219z"/>
</g>
</svg>
