<?xml version="1.0" encoding="iso-8859-1"?>
<!-- Generator: Adobe Illustrator 22.1.0, SVG Export Plug-In . SVG Version: 6.00 Build 0)  -->
<svg version="1.1" id="Layer_1" xmlns="http://www.w3.org/2000/svg" xmlns:xlink="http://www.w3.org/1999/xlink" x="0px" y="0px"
	 viewBox="0 0 35 24" style="enable-background:new 0 0 35 24;" xml:space="preserve">
<g id="Romania">
	<path d="M32,16l-2-1V7l-3-3l-1-3l-2-1l-1,1l-1,1h-3l-1,1l-1-1h-3l-3-1l-1,2H8l-4,7l-4,1l1,2h2v2l2,1v2l2,2l2-2l1,1l-1,1l1,1v2h4
		l1,1h4h2l1-2l3-1h1l4,2h2v-4l3-1v-3L32,16z M34,17.279l-3,1V22h-0.764l-4-2h-1.398l-3.547,1.183L20.382,23h-4.968l-1-1H11v-1.414
		L10.414,20l1-1L9,16.586l-2,2l-1-1v-2.204l-2-1V12H1.618l-0.166-0.332l3.204-0.802L8.58,4h2.038l0.889-1.777L13.838,3h2.748
		L18,4.414L19.414,3h3l1.783-1.783l0.985,0.492l0.943,2.831L29,7.414v8.204l2.923,1.462L34,16.388V17.279z"/>
</g>
</svg>
