<?xml version="1.0" encoding="iso-8859-1"?>
<!-- Generator: Adobe Illustrator 22.1.0, SVG Export Plug-In . SVG Version: 6.00 Build 0)  -->
<svg version="1.1" id="Layer_1" xmlns="http://www.w3.org/2000/svg" xmlns:xlink="http://www.w3.org/1999/xlink" x="0px" y="0px"
	 viewBox="0 0 23 26" style="enable-background:new 0 0 23 26;" xml:space="preserve">
<g id="San_Marino">
	<path d="M22,5V2l1-1V0h-2l-3,2l-3,1l-4,2L7,9H4l-2,1L0,9v3l2,2v3l-1,1v1l1,3l-1,2h2l1-1h1v1h1l2-1l1,3h7l2-4v-3h2v-2l3-3l-1-4l-1-1
		V5H22z M21.097,10.512l0.795,3.182L19,16.586V18h-2v3.764L15.382,25H9.721l-1.137-3.41L6,22.882V22H3.586L2.65,22.936l0.429-0.858
		L2,18.838v-0.424l1-1v-3.828l-2-2v-0.968l1,0.5L4.236,10h3.178l4.178-4.178l3.792-1.896l3.06-1.02L21.303,1h0.283L21,1.586V4h-1
		v5.414L21.097,10.512z"/>
</g>
</svg>
