<?xml version="1.0" encoding="iso-8859-1"?>
<!-- Generator: Adobe Illustrator 22.1.0, SVG Export Plug-In . SVG Version: 6.00 Build 0)  -->
<svg version="1.1" id="Layer_1" xmlns="http://www.w3.org/2000/svg" xmlns:xlink="http://www.w3.org/1999/xlink" x="0px" y="0px"
	 viewBox="0 0 19 27" style="enable-background:new 0 0 19 27;" xml:space="preserve">
<g id="Scotland">
	<rect x="15" width="2" height="2"/>
	<g>
		<polygon points="4,4 6,4 6,2 4,2 4,3 2,3 2,6 4,6 		"/>
		<path d="M18,9h-4h-1V8h-1V7l4-3V3h-4l-2-0.667V2H9v2H8v2H6v4L5,8V7H3v1v1h0.667L5,11v2H3v2H2v1h2l2-2v2l-2,2H2v1h2l-1,2l1,1
			l0.667-2H5v1h1v-1l1,1l-2,3v3h1v-2l2,1h3l5-4v-1l-1.5-1.5H12L11,18h2h1h1v-1h-1v-1h2l2-3v-1l1-1v-1L18,9z M18,10.586l-1,1v1.111
			L15.465,15H13v2H9.132l2.333,3.5h2.621L15,21.414v0.105L10.649,25H8.236L6.21,23.987l2.077-3.114L5.414,18L7,16.414V7h2V5h1V3.388
			L11.838,4h2.495L11,6.5V9h1v1h5.586L18,10.414V10.586z"/>
		<rect y="6" width="1" height="4"/>
		<rect x="2" y="10" width="1" height="1"/>
		<rect x="1" y="12" width="1" height="1"/>
	</g>
</g>
</svg>
