<?xml version="1.0" encoding="iso-8859-1"?>
<!-- Generator: Adobe Illustrator 22.1.0, SVG Export Plug-In . SVG Version: 6.00 Build 0)  -->
<svg version="1.1" id="Layer_1" xmlns="http://www.w3.org/2000/svg" xmlns:xlink="http://www.w3.org/1999/xlink" x="0px" y="0px"
	 viewBox="0 0 20 29" style="enable-background:new 0 0 20 29;" xml:space="preserve">
<g id="Serbia">
	<path d="M18,18l-1-3l1-1v-2l1-1l-2-1l-2,1v-1h-2V7l-3-1L9,3L7,1L5,0L0,2l2,5H1v2h2l-2,3v1l3,2H2l1,2H2v1l5,4H6v3l2,1v3l1.083-0.333
		L10,27l1-1v1h1v-1l6-1v-3h1l1-2L18,18z M18.382,21H17v3.153l-5,0.833v-1.4l-2.808,2.808L9,26.743v-1.361l-2-1V23h2.851l-6.25-5
		h1.018l-1-2h3.685L2,12.465v-0.162L4.869,8H3.477L1.3,2.557l3.655-1.461l1.453,0.727L8.126,3.54l1.083,3.251L12,7.721V11h2v1.618
		l3-1.5l0.312,0.156L17,11.586v2l-1.145,1.144l1.271,3.811l1.657,1.657L18.382,21z"/>
</g>
</svg>
