<?xml version="1.0" encoding="iso-8859-1"?>
<!-- Generator: Adobe Illustrator 22.1.0, SVG Export Plug-In . SVG Version: 6.00 Build 0)  -->
<svg version="1.1" id="Layer_1" xmlns="http://www.w3.org/2000/svg" xmlns:xlink="http://www.w3.org/1999/xlink" x="0px" y="0px"
	 viewBox="0 0 44 21" style="enable-background:new 0 0 44 21;" xml:space="preserve">
<g id="Slovakia">
	<path d="M40,5l-1-2l-3-1h-3l-2,2l-1-1h-4l-1,2h-2V2h-2l-1-2l-2,1v2h-2V1h-1l-1,1h-1l-1,2h-1L8,8H7L6,9H2l-1,1v2l-1,2l2,3v1h2l3,3h8
		v-2l1-1h5v-2h1l2,1l3-2l1-3h3l3,1v-1h2l1,2h4v-2l1-1l2-5L40,5z M41.148,10.438L40,11.586V13h-2.382l-1-2H33v0.612L31.162,11h-3.883
		l-1.12,3.358l-2.231,1.487L22.236,15H20v2h-4.414L14,18.586V20H7.414l-3-3H3v-0.303l-1.846-2.77L2,12.236v-1.822L2.414,10h4l1-1
		H8.5l3-4h1.118l1-2h0.796L15,2.414V4h4V1.618l0.553-0.276L20.382,3H22v3h3.618l1-2h2.968L31,5.414L33.414,3h2.424l2.453,0.817
		l1.02,2.041l3.335,0.834L41.148,10.438z"/>
</g>
</svg>
