<?xml version="1.0" encoding="iso-8859-1"?>
<!-- Generator: Adobe Illustrator 22.1.0, SVG Export Plug-In . SVG Version: 6.00 Build 0)  -->
<svg version="1.1" id="Layer_1" xmlns="http://www.w3.org/2000/svg" xmlns:xlink="http://www.w3.org/1999/xlink" x="0px" y="0px"
	 viewBox="0 0 35 24" style="enable-background:new 0 0 35 24;" xml:space="preserve">
<g id="Slovenia">
	<path d="M34,2V0h-4v3l-2-1h-2l-1,1l-1,1h-1V3h-4l-1,1h-2v2l-2,1H8V6H3L0,9v1h1l2,2l-2,1v2h2l-1,3h1l2,3l-1,1H2v1h8l3-1l1-2v1l2,2h2
		l2,1l3-1l-1-1v-2h1l-2-1l3-2h2l1-3l-1-1v-2h1l4-3h2V5h2L34,2z M32,4v3h-1.333l-4,3H25v3.414l0.856,0.856L25.279,16h-1.582
		l-4.686,3.124L21,20.118v2.296l0.149,0.148l-1.072,0.357L18.236,22h-1.822L15,20.586V20l-1.895-0.447l-0.814,1.63L9.838,22H5.414
		l0.873-0.873L3.535,17H3.387l1-3H2v-0.382l2.688-1.344L1.414,9l2-2H7v1h7.236L17,6.618V5h1.414l1-1H22v1h2.414l2-2h1.35L31,4.618V1
		h2v1.162L33.613,4H32z"/>
</g>
</svg>
