<?xml version="1.0" encoding="iso-8859-1"?>
<!-- Generator: Adobe Illustrator 22.1.0, SVG Export Plug-In . SVG Version: 6.00 Build 0)  -->
<svg version="1.1" id="Layer_1" xmlns="http://www.w3.org/2000/svg" xmlns:xlink="http://www.w3.org/1999/xlink" x="0px" y="0px"
	 viewBox="0 0 34 26" style="enable-background:new 0 0 34 26;" xml:space="preserve">
<g id="Spain_1_">
	<rect x="26" y="16" width="1" height="1"/>
	<rect x="33" y="13" width="1" height="1"/>
	<polygon points="32,15 29,15 29,14 30,13 32,13 	"/>
	<g id="Spain">
		<path d="M27,5V4l-2-1v1h-1l-4-1V2l-6-1l-1,1L9,1H5V0H3L2,2H0l1,5h1l1-1v1h4v1h1l-2,2v4H4l2,2l-1,1l1,2l-1,2v1h1l1,1l1,2l1,1l3-3h6
			l2-2h1l1-3l2-1l-2-2l3-5l4-1l2-2V5H27z M30,6.586l-1.512,1.511L24.355,9.13l-3.614,6.025l1.57,1.57l-1.129,0.565L20.279,20h-0.693
			l-2,2h-6L9,24.586l-0.178-0.179l-1-2L6.414,21H6.118l1-2l-0.901-1.803L7.414,16l-1-1H7v-4.586L10.414,7H8V6H4V3.586L1.781,5.805
			L1.22,3h1.398l1-2H4v1h4.877l4.43,1.107l1.036-1.036L19,2.847v0.935L23.877,5H26v1h4V6.586z"/>
	</g>
</g>
</svg>
