<?xml version="1.0" encoding="iso-8859-1"?>
<!-- Generator: Adobe Illustrator 22.1.0, SVG Export Plug-In . SVG Version: 6.00 Build 0)  -->
<svg version="1.1" id="Layer_1" xmlns="http://www.w3.org/2000/svg" xmlns:xlink="http://www.w3.org/1999/xlink" x="0px" y="0px"
	 viewBox="0 0 44 28" style="enable-background:new 0 0 44 28;" xml:space="preserve">
<g id="Switzerland">
	<path d="M44,17v-1h-1v-5h-1l-1,2h-1l-2-1v-1l-4-1V7l2-1V5l-2-1l-3-2h-3l-2-2l-2,1v2h-8l-2,2h-2V4h-2v3l-3,4l-2,1v2l-4,3v5H0v1h2
		l1-1v-2l2-1h2l1,1v3l3,4l5-1l1,1h2v-2h1v-1l1-1v-1l2-3h1v3l2,2h1l2,4h1v-3l2-4v-3h2v2l1,1h4v1h2v-3h-1v-2H44z M39,16v4h-3.586
		L35,19.586V17h-4v3.764l-2,4v1L27.618,23h-1.204L25,21.586V18h-2.535L20,21.697v0.889l-1,1V24h-1v2h-0.586l-1.085-1.086
		l-4.907,0.981L9,22.667v-3.081L7.414,18h-2.65L2,19.382V17.5l4-3v-1.882l1.658-0.829L11,7.333V6V5v1h3.414l2-2H25V1.618
		l0.803-0.401L27.586,3h3.111l2.8,1.866L34.764,5.5L33,6.382v4.399l4,1v0.837L39.764,14h1.854L42,13.236V16H39z"/>
</g>
</svg>
