<?xml version="1.0" encoding="iso-8859-1"?>
<!-- Generator: Adobe Illustrator 22.1.0, SVG Export Plug-In . SVG Version: 6.00 Build 0)  -->
<svg version="1.1" id="Layer_1" xmlns="http://www.w3.org/2000/svg" xmlns:xlink="http://www.w3.org/1999/xlink" x="0px" y="0px"
	 viewBox="0 0 41 28" style="enable-background:new 0 0 41 28;" xml:space="preserve">
<g id="Ukraine">
	<g>
		<path d="M35,6l-4,1l-1-3h-2l-1-4h-4v1h-2l-1,1v2L7,1L6,2H5v4L2,8l-2,4l1,2l6,2l2-1l4-1l3,1v2l1,1v1h1v2l2,1v-1h2l2,1h2l1,1l-2,1
			l-1,1l3,1v2h2l1-2h1l1-1h2v-1h-2l-1-1v-2l7-4v-1l1-1.583h2V9L35,6z M40,13.417h-1.551L37,15.711v0.709l-7,4v2.994l1.086,1.086
			l-0.5,0.5h-1.204l-1,2H28v-1.721l-1.994-0.664l2.682-1.341L26.414,21h-2.178l-2-1H19v-2h-1v-0.414l-1-1v-2.307l-3.96-1.32
			l-4.389,1.098L6.923,14.92l-5.214-1.737L1.118,12l1.658-3.315L6,6.535V3h0.414l0.901-0.901L21,5.257V2.414L21.414,2H24V1h2.219
			l1,4h2.06l1.065,3.194l4.54-1.135L40,9.618V13.417z"/>
	</g>
	<g>
		<path d="M17,21h-2v1l-1,2l1,1h3v-2h1v-1L17,21z M17,24h-1.586l-0.197-0.197L16,22.236V22h0.764L17,22.118V24z"/>
	</g>
</g>
</svg>
