<?xml version="1.0" encoding="iso-8859-1"?>
<!-- Generator: Adobe Illustrator 22.1.0, SVG Export Plug-In . SVG Version: 6.00 Build 0)  -->
<svg version="1.1" id="Layer_1" xmlns="http://www.w3.org/2000/svg" xmlns:xlink="http://www.w3.org/1999/xlink" x="0px" y="0px"
	 viewBox="0 0 25 28" style="enable-background:new 0 0 25 28;" xml:space="preserve">
<g id="Great_Britain">
	<g>
		<path d="M10,11v-1H7v1H6v1h1v1H5v-1H4v1H3v2l1,1l-4,2v2h1l1,2h3l2-1h2l2-3v-3h1v-4H10z M11,14h-1v3.697L8.465,20H6.764l-2,1H2.618
			l-1-2H1v-0.382l4.688-2.344L4,14.586V14h4v-3h1v1h2V14z"/>
	</g>
	<g>
		<path d="M25,20h-2l-1,1v-2l-1-4h-1v-3l-1-2h-1V9l1-1l1-2V5l-3-1l2-2l-3-1l-3,3v2h-1v1v1h1V7h1v2h-2v1h2l-1,2v1h3v3h1l-1,2h-1v-1
			h-1v1h-1v1h1v2l-3,1v1h2l1,1h2l-1,1h-2h-2l-2,2H8v1h2l1-1h1v1h2v-1h3v1h1v-1h6v-1l-2-1l3-2V20z M24,22.465l-3.988,2.659L21.764,26
			h-6.35l3-3h-4l-0.813-0.813L15,21.721V19h1.618l2-4H17v-3h-2.882l1.5-3H15V6h-1V4.414l2.271-2.27l0.878,0.293l-2,2L19,5.721v0.043
			l-0.822,1.644L17,8.586V11h1.382L19,12.236V16h1.219L21,19.123v4.291L23.414,21H24V22.465z"/>
	</g>
	<rect x="10" y="3" width="1" height="2"/>
	<polygon points="13,2 14,2 14,1 12,1 12,2 12,3 13,3 	"/>
	<rect x="13" y="14" width="1" height="1"/>
	<rect x="19" width="1" height="1"/>
</g>
</svg>
