<?xml version="1.0" encoding="iso-8859-1"?>
<!-- Generator: Adobe Illustrator 22.1.0, SVG Export Plug-In . SVG Version: 6.00 Build 0)  -->
<svg version="1.1" id="Layer_1" xmlns="http://www.w3.org/2000/svg" xmlns:xlink="http://www.w3.org/1999/xlink" x="0px" y="0px"
	 viewBox="0 0 46 23" style="enable-background:new 0 0 46 23;" xml:space="preserve">
<g id="Austria">
	<path d="M46,11V7l-1-2V4V2l-2-1l-1,1h-2l-1-1h-1l-2-1h-3v2h-1l-1,1h-3V2l-2-1v2h-2v2l-1,1h-1l-2,2l2,2v4h-1l-1-1v-2h-4v1h-3l-2,2H9
		l-1-2H5v2l-1,1l-2-3l-2,1v3l3,3l1-1h1l2,2h2l1-2h6l1,3l10,2h4l3-2h6v-2l1-1h2v-4l1-1v-1h-2l1-1H46z M39.586,13h3L42,13.586V17
		h-1.414L39,18.586V20h-5.303l-3,2h-3.598l-9.334-1.867L16.721,17H9.382l-1,2H7.414l-2-2H3.586L3,17.586l-2-2v-1.968l0.658-0.329
		l2.187,3.281L6,14.414V13h1.382l1,2h3.032l2-2H17v-1h2v1.414L20.586,15H23V9.586L21.414,8l1-1h1L25,5.414V4h6.414l1-1H34V1h1.764
		l2,1h0.822l1,1h2.828l0.783-0.783L44,2.618v2.618l1,2V10h-2.414L39.586,13z"/>
</g>
</svg>
