<?xml version="1.0" encoding="iso-8859-1"?>
<!-- Generator: Adobe Illustrator 22.1.0, SVG Export Plug-In . SVG Version: 6.00 Build 0)  -->
<svg version="1.1" id="Layer_1" xmlns="http://www.w3.org/2000/svg" xmlns:xlink="http://www.w3.org/1999/xlink" x="0px" y="0px"
	 viewBox="0 0 36 24" style="enable-background:new 0 0 36 24;" xml:space="preserve">
<g id="Bulgaria">
	<path d="M32,3V2l-5-1l-2,1h-2l-4,3h-9L6,3H4V2L3,0H1v2L0,3l1,4l3,2l-2,2H0v3h1l-1,2l1,2h1l1,2v4h2v-1h4v-1l7,2h5l2-1l-1-3h2l1-2h2
		l1-1h1l2,2l2-1l-2-3l-2-1l3-2V9l1-2l3-1V4L32,3z M35,5.279l-2.709,0.903L31,8.764v2.701l-3.988,2.659l3.304,1.652l1.224,1.836
		l-0.342,0.171L29.414,16h-1.828l-1,1h-2.204l-1,2h-2.769l1.164,3.494L20.764,23H16.14L8,20.674V22H4v-2.236L2.618,17h-1l-0.5-1
		l1.5-3H1v-1h1.414L5.57,8.845L1.876,6.382L1.107,3.307L2,2.414V1h0.382L3,2.236V4h2.764l4,2h9.569l4-3h1.902l1.904-0.952L31,2.82
		v0.961l4,1V5.279z"/>
</g>
</svg>
