<?xml version="1.0" encoding="iso-8859-1"?>
<!-- Generator: Adobe Illustrator 22.1.0, SVG Export Plug-In . SVG Version: 6.00 Build 0)  -->
<svg version="1.1" id="Layer_1" xmlns="http://www.w3.org/2000/svg" xmlns:xlink="http://www.w3.org/1999/xlink" x="0px" y="0px"
	 viewBox="0 0 45 27" style="enable-background:new 0 0 45 27;" xml:space="preserve">
<g id="Cyprus">
	<path d="M30,7h-1l-5,2h-7l-5-2v6h-2l-3-1l-2,1l-3,3l-2-1v3l3,6l5,2l1-1h3v2h3v-3h6l6-3v-3h3v1h2v-1h4v-1l-4-3v-4h2l2-3l9-5V0L30,7z
		 M35.302,6.244L33.465,9H31v5.5l3.333,2.5H26v3.382L20.764,23H14v3h-1v-2H8.586l-0.827,0.827l-4.035-1.614L1,17.764v-1.146
		l1.197,0.599l3.395-3.395l1.484-0.742L9.838,14H13V8.477L16.808,10h7.385l5-2h1.029l11.994-5.597L35.302,6.244z"/>
</g>
</svg>
