<?xml version="1.0" encoding="iso-8859-1"?>
<!-- Generator: Adobe Illustrator 22.1.0, SVG Export Plug-In . SVG Version: 6.00 Build 0)  -->
<svg version="1.1" id="Layer_1" xmlns="http://www.w3.org/2000/svg" xmlns:xlink="http://www.w3.org/1999/xlink" x="0px" y="0px"
	 viewBox="0 0 24 29" style="enable-background:new 0 0 24 29;" xml:space="preserve">
<g id="Denmark">
	<rect x="15" y="4" width="2" height="1"/>
	<rect x="18" y="9" width="1" height="1"/>
	<rect x="1" y="23" width="1" height="2"/>
	<rect x="11" y="26" width="2" height="1"/>
	<rect x="13" y="16" width="1" height="2"/>
	<g>
		<path d="M10,19v-1h1l1-3h2l1-3l-1-1h-2V8l1-3V2h-1l2-2h-1l-2,2h-1L9,4L7,6H3L1,9h1v1h1V8h1V7h2v2H5V8H4v2v2H3v-1H2v-1H1l-1,4v2h1
			v-1h1v2H0v3l1,1h2v5h1l2,1h4v-1H8l-1-1l1-1v-2h1l2,3h3v-2l-1-3h-1l-3,1v-2H10z M12.162,21h0.117L13,23.162V24h-1.465l-1.522-2.284
			L12.162,21z M7,7h2v1H7V7z M6,10h1v1H6V10z M8,18v3H7v2.586L5.586,25l1,1h-0.35l-2-1H4v-5H1.414L1,19.586V18h2v-4H1.031l0.5-2H2v1
			h3v-1h3V9h2V6H8.414l1.408-1.408L10.618,3H12v1.838l-1,3V12h2.586l0.27,0.27L13.279,14h-2l-1,3H9v1H8z"/>
	</g>
	<path d="M22,15l-1,1v1h1v1h-1v1h-1v-2h-2l-1,2h-2l2,5h2v1h1v1h-1v1h-1l-1-1h-2v2l2,1h3l1-2h2v-1h-2v-2h2v-1l-1-1l1-2h1v-4L22,15z
		 M21.586,23h-3.909l-1.2-3h1.142l1-2H19v2h2.882l-1.099,2.197L21.586,23z"/>
</g>
</svg>
