<?xml version="1.0" encoding="iso-8859-1"?>
<!-- Generator: Adobe Illustrator 22.1.0, SVG Export Plug-In . SVG Version: 6.00 Build 0)  -->
<svg version="1.1" id="Layer_1" xmlns="http://www.w3.org/2000/svg" xmlns:xlink="http://www.w3.org/1999/xlink" x="0px" y="0px"
	 viewBox="0 0 35 28" style="enable-background:new 0 0 35 28;" xml:space="preserve">
<g id="France">
	<g>
		<path d="M26,19h1v-4h-2l2-3h1l2-6h-3l-1-1h-3l-6-4V0l-2,1v2l-1,1h-2v1H8V4H6l2,4H5L4,7L0,8v2l5,2l2,3l2,1l-2,9l8,3h3v-3l2-1h2l2,2
			h2l3-4h-2L26,19z M25.5,25h-1.086l-2-2h-2.65L17,24.382V27h-1.819l-7.017-2.631l1.981-8.914l-2.461-1.23L5.66,11.187L1,9.323
			V8.781l2.693-0.674L4.586,9h5.032l-1.5-3H13V5h1.414L16,3.414V1.618l0.071-0.035L22.697,6h2.889l1,1h2.027l-1.333,4h-0.814
			l-3.333,5H26v2h-1.387l1.667,5H27L25.5,25z"/>
	</g>
	<polygon points="32,23 35,22 35,27 33,26 	"/>
</g>
</svg>
