<?xml version="1.0" encoding="iso-8859-1"?>
<!-- Generator: Adobe Illustrator 22.1.0, SVG Export Plug-In . SVG Version: 6.00 Build 0)  -->
<svg version="1.1" id="Layer_1" xmlns="http://www.w3.org/2000/svg" xmlns:xlink="http://www.w3.org/1999/xlink" x="0px" y="0px"
	 viewBox="0 0 35 25" style="enable-background:new 0 0 35 25;" xml:space="preserve">
<g id="Iceland">
	<path d="M32,7h-1l1-2h-2l-0.378-0.378L31,2.555L30.168,2l-1.267,1.901L28,3V1h-3v3h-2v1h-1l-1-2h-2l1,2h-4v2l-2-2h-1v3h-2v2h-1V7H9
		V6h1V5h1V4H9L8,3h1V2H7L6,1H5V0H4v1H3v1h1v1h1v2H3V4H2v1H0v1h1.333L0,8v1h2l3-1l2,1l1,1l-2,1l1,1h2v1H5l-2,0.5V13H2v0.75L1,14l1,1
		h4l0.5,1H8v1H7l0.5,1H9v1H8v1l-3,1v1h5l1-1l3,3h2l1,1h2l2-1l1-1l3-1l3-3h3l1.714-3H32v-1h1.286l0.571-1H33v-1h1.429L35,12V9L32,7z
		 M8.586,5H8v3h1v1.586L7.592,8.178L5.077,6.92L1.838,8H1.202l1.333-2H6V2.414L8.586,5 M34,11.734L33.848,12H32v2h-1v2.984L30.42,18
		h-2.834l-3.126,3.126l-3,1l-1.052,1.052L18.764,24h-1.35l-1-1h-2L11,19.586L9.586,21H8.162L9,20.721V20h1v-3H9v-2H7.118l-0.5-1H10
		v-3h2V9h2V6.414l3,3V6h7V5h2V2h1v1.414L29.586,6h0.796l-1,2h2.315L34,9.535V11.734z"/>
</g>
</svg>
