<?xml version="1.0" encoding="iso-8859-1"?>
<!-- Generator: Adobe Illustrator 22.1.0, SVG Export Plug-In . SVG Version: 6.00 Build 0)  -->
<svg version="1.1" id="Layer_1" xmlns="http://www.w3.org/2000/svg" xmlns:xlink="http://www.w3.org/1999/xlink" x="0px" y="0px"
	 viewBox="0 0 14 30" style="enable-background:new 0 0 14 30;" xml:space="preserve">
<g id="Malawi">
	<path d="M9,16v-5h1V8L8,7V3L7,1L2,0l3,5L3,6v6l-2,1v2l-1,1.75L1,19l1-1l2,2h4l1,3l-2,3l3,3v1h1v-3l3-1v-5L9,16z M13,25.279l-3,1
		v1.307l-1.713-1.713l1.816-2.726L8.721,19H4.414L2,16.586l-0.678,0.678l-0.203-0.457L2,15.266v-1.647l2-1v-6l2.413-1.207
		L4.021,1.424l2.304,0.461L7,3.236v4.382l2,1V10H8v6.414l5,5V25.279z"/>
</g>
</svg>
