<?xml version="1.0" encoding="iso-8859-1"?>
<!-- Generator: Adobe Illustrator 22.1.0, SVG Export Plug-In . SVG Version: 6.00 Build 0)  -->
<svg version="1.1" id="Layer_1" xmlns="http://www.w3.org/2000/svg" xmlns:xlink="http://www.w3.org/1999/xlink" x="0px" y="0px"
	 viewBox="0 0 45 21" style="enable-background:new 0 0 45 21;" xml:space="preserve">
<g id="Latvia">
	<path d="M43,11h-2V9l1-1V7l-2-1V5h-2l-2-1l-2,1l-3-3l-5-2l-6,2l1,6l-4,2l-3-1l-1-2l-3-3V3L6,4H4L2,7v3l-2,1v7l4-2l3-1h5l6,1h4v-1h2
		l1,2h4l4,4h3l1-1h4v-1l3-2l1-1L43,11z M43.363,16.223L40,18.465V19h-3.414l-1,1h-2.172l-4-4h-3.796l-1-2H21v1h-2.917l-6-1H6.838
		l-3.222,1.074L1,16.382v-4.764l2-1V7.303L4.535,5h1.588L9,4.281v0.133l3.178,3.179l1.113,2.225l3.786,1.263l5.031-2.516
		l-0.981-5.886l4.842-1.614l4.469,1.788l3.365,3.364L36,5.118L37.764,6H39v0.618l1.979,0.989L40,8.586V12h2.323l1.504,3.759
		L43.363,16.223z"/>
</g>
</svg>
