<?xml version="1.0" encoding="iso-8859-1"?>
<!-- Generator: Adobe Illustrator 22.1.0, SVG Export Plug-In . SVG Version: 6.00 Build 0)  -->
<svg version="1.1" id="Layer_1" xmlns="http://www.w3.org/2000/svg" xmlns:xlink="http://www.w3.org/1999/xlink" x="0px" y="0px"
	 viewBox="0 0 14 29" style="enable-background:new 0 0 14 29;" xml:space="preserve">
<g id="Liechtenstein">
	<path d="M14,18h-1v-3l-1,1h-1l-1-2l-1-1H8v-2l1-3L7,6l1-2L6,2L5,0L3,6l-2,5v2l2,4l1,5l-1,2l-3,2v2h2l3-2l2,1v2l5-2v-2l2-1v-2l-1-1
		L14,18z M13,23.382l-2,1v1.941l-3,1.2v-1.142l-3.072-1.536L1.697,27H1v-0.465l2.776-1.851l1.272-2.544l-1.094-5.468L2,12.764
		v-1.571l1.929-4.821l1.258-3.771l1.597,1.597l-1,2l2.073,2.073L7,10.838V14h1.586l0.592,0.593L10.382,17H12v2h0.613l-0.757,2.271
		L13,22.414V23.382z"/>
</g>
</svg>
