<?xml version="1.0" encoding="iso-8859-1"?>
<!-- Generator: Adobe Illustrator 22.1.0, SVG Export Plug-In . SVG Version: 6.00 Build 0)  -->
<svg version="1.1" id="Layer_1" xmlns="http://www.w3.org/2000/svg" xmlns:xlink="http://www.w3.org/1999/xlink" x="0px" y="0px"
	 viewBox="0 0 35 26" style="enable-background:new 0 0 35 26;" xml:space="preserve">
<g id="Lithuania">
	<path d="M33,11l1-3l-2-1l-4-4l-4-1l-1-2l-2,1L6,0L2,1L0,4v4l1,4l5,2h3l2,2v1h-1v4h1l3,2v2l2,1h4l3-2h1l1.5-1.5l0.5-0.167V23h1h1v-2
		h-0.667L28,19v-3l2-1l1-1l1-1h2l1-2H33z M31.613,12h-0.027l-2.178,2.178L27,15.382v3.456l-0.791,2.373l-1.249,0.415L23.586,23
		h-0.889l-3,2h-3.461L15,24.382v-1.917L11.303,20H11v-2h1v-2.414L9.414,13H6.192l-4.346-1.738L1,7.877V4.303l1.618-2.427L6.09,1.008
		l15.114,1.008l1.348-0.674l0.758,1.517l4.178,1.045l3.919,3.919l1.369,0.685L31.613,12h1.769H31.613z"/>
</g>
</svg>
