<?xml version="1.0" encoding="iso-8859-1"?>
<!-- Generator: Adobe Illustrator 22.1.0, SVG Export Plug-In . SVG Version: 6.00 Build 0)  -->
<svg version="1.1" id="Layer_1" xmlns="http://www.w3.org/2000/svg" xmlns:xlink="http://www.w3.org/1999/xlink" x="0px" y="0px"
	 viewBox="0 0 19 28" style="enable-background:new 0 0 19 28;" xml:space="preserve">
<g id="Luxembourg">
	<path d="M14,13v-1l-2-1l-1-2L9,5l1-3V1H9H8V0H6v2L5,3L3,5L2,8l-2,3v3h1l1,3h1v5l-2,2l1,1l3,1v1l2,1v-1h1l1-1h3l2,2v-5l2-1v-2l2-2
		l1-3L14,13z M17.126,17.46L15,19.586v1.796l-2,1v3.204L12.414,25H8.586l-1,1H6v-0.721l-3.46-1.153L2.414,24L4,22.414V16H2.721l-1-3
		H1v-1.697l1.906-2.859L3.874,5.54L7,2.414V2h1.946L7.92,5.077l3.334,6.668L13,12.618v1.059l4.753,1.901L17.126,17.46z"/>
</g>
</svg>
