<?xml version="1.0" encoding="iso-8859-1"?>
<!-- Generator: Adobe Illustrator 22.1.0, SVG Export Plug-In . SVG Version: 6.00 Build 0)  -->
<svg version="1.1" id="Layer_1" xmlns="http://www.w3.org/2000/svg" xmlns:xlink="http://www.w3.org/1999/xlink" x="0px" y="0px"
	 viewBox="0 0 28 23" style="enable-background:new 0 0 28 23;" xml:space="preserve">
<g id="Macedonia">
	<path d="M27,9V6l-4-2l-3-4l-5,1l-1,1h-4L9,4H8L7,3L3,4v4H1v3l-1,1l1,2l-1,2l3,6h2l1,1l8-1l2-3h9v-3l3-1V9H27z M27,14.279l-3,1V18
		h-8.535l-2.043,3.064l-7.061,0.883L5.414,21H3.618l-2.5-5l1-2l-0.901-1.803L2,11.414V9h2V4.781l2.693-0.674L7.586,5h2.032l1-2
		h3.796l1.079-1.079l4.085-0.816l2.764,3.685L26,6.618V10h1V14.279z"/>
</g>
</svg>
