<?xml version="1.0" encoding="iso-8859-1"?>
<!-- Generator: Adobe Illustrator 22.1.0, SVG Export Plug-In . SVG Version: 6.00 Build 0)  -->
<svg version="1.1" id="Layer_1" xmlns="http://www.w3.org/2000/svg" xmlns:xlink="http://www.w3.org/1999/xlink" x="0px" y="0px"
	 viewBox="0 0 25 28" style="enable-background:new 0 0 25 28;" xml:space="preserve">
<g id="Moldova">
	<path d="M23,16v-2l-2-1l-1-4V8h-1v1l-2-1V4h-1l-2-2h-2L6,0L0,2l2,1l1,1l2,4l5,5l2,4l-1,3l2,7v1h1v-1h1l1-4l2-1v-2h-1v-2l2-1v1v1h1
		v-1h1v1h1v-1h2v1h1v-1v-1L23,16z M20,17v-1.618l-4,2V21h1v0.382l-1.858,0.93L14.219,26h-0.465l-1.707-5.978l1.033-3.1l-2.258-4.516
		l-5-5l-2-4l-1.221-1.22L6,1.054L11.838,3h1.748l2,2H16v3.618l3.284,1.642l0.857,3.429L22,14.618v2L22.764,17H20z"/>
</g>
</svg>
