<?xml version="1.0" encoding="iso-8859-1"?>
<!-- Generator: Adobe Illustrator 22.1.0, SVG Export Plug-In . SVG Version: 6.00 Build 0)  -->
<svg version="1.1" id="Layer_1" xmlns="http://www.w3.org/2000/svg" xmlns:xlink="http://www.w3.org/1999/xlink" x="0px" y="0px"
	 viewBox="0 0 23 27" style="enable-background:new 0 0 23 27;" xml:space="preserve">
<g id="Norway">
	<polygon points="1,18 6,16 9,12 11,8 11,6 18,0 20,0 23,1 22,4 21,4 21,2 19,2 19,5 17,5 16,4 15,5 15,6 13,6 13,7 11,12 10,15 
		9,15 8,18 8,26 7,26 6,25 4,27 2,27 0,26 	"/>
	<rect x="9" y="6" width="1" height="1"/>
	<rect x="10" y="5" width="1" height="1"/>
	<rect x="12" y="3" width="1" height="1"/>
	<rect x="14" y="1" width="1" height="1"/>
	<rect x="16" width="1" height="1"/>
</g>
</svg>
