<?xml version="1.0" encoding="iso-8859-1"?>
<!-- Generator: Adobe Illustrator 22.1.0, SVG Export Plug-In . SVG Version: 6.00 Build 0)  -->
<svg version="1.1" id="Layer_1" xmlns="http://www.w3.org/2000/svg" xmlns:xlink="http://www.w3.org/1999/xlink" x="0px" y="0px"
	 viewBox="0 0 12 26" style="enable-background:new 0 0 12 26;" xml:space="preserve">
<g id="Portugal">
	<path d="M11,2V0H8v1H5V0H4L2,1l1,5l-3,8v3h1v2h1v3l-1,4h1l1-1h2l1,1l2-2v-2l2-2v-1H8v-1l2-3H8l-1-2h2l1-2V6l2-2V2H11z M11,3.586
		l-2,2v5.178L8.382,12h-3l2,4h0.75L7,17.697V20h1.586L7,21.586v2l-1,1L5.414,24H2.586l-0.074,0.073L3,22.123V18H2v-2H1v-1.818
		l3.037-8.098L3.13,1.553L4,1.118V2h5V1h1v2h1V3.586z"/>
</g>
</svg>
