<?xml version="1.0" encoding="iso-8859-1"?>
<!-- Generator: Adobe Illustrator 22.1.0, SVG Export Plug-In . SVG Version: 6.00 Build 0)  -->
<svg version="1.1" id="Layer_1" xmlns="http://www.w3.org/2000/svg" xmlns:xlink="http://www.w3.org/1999/xlink" x="0px" y="0px"
	 viewBox="0 0 24 26" style="enable-background:new 0 0 24 26;" xml:space="preserve">
<g id="Kosovo">
	<path d="M22,11l-1-1l-2-1V7l-2-1V4h-2V2h-3l-1-2L8,1l1,1v2L6,5v3H4L3,9H0v1l1,1v2l2,3v2h1l3,1l1,3v2l-1,1v1h2l1-1v-3l5-2l1,2h2v-2
		l1-1h2v-2h1v-2l2-3v-1H22z M21,14.697V16h-1v2h-1.414L17,19.586V21h-0.382l-1.135-2.271L9.808,21H8.721l-0.93-2.791L4.162,17H4
		v-1.303l-2-3v-2.111L1.414,10h2l1-1H7V5.721l3-1V1.586L9.851,1.438l0.643-0.215L11.382,3H14v2h2v1.618l2,1v2l2.408,1.204L21.586,12
		h1.212L21,14.697z"/>
</g>
</svg>
