<?xml version="1.0" encoding="iso-8859-1"?>
<!-- Generator: Adobe Illustrator 22.1.0, SVG Export Plug-In . SVG Version: 6.00 Build 0)  -->
<svg version="1.1" id="Layer_1" xmlns="http://www.w3.org/2000/svg" xmlns:xlink="http://www.w3.org/1999/xlink" x="0px" y="0px"
	 viewBox="0 0 12 28" style="enable-background:new 0 0 12 28;" xml:space="preserve">
<g id="Sweden">
	<rect x="6" y="23" width="1" height="2"/>
	<g id="_x3C_Path_x3E__2_">
		<path d="M11,2L9,0H8v2H6v1H5L3,8v4H2l-1,1v4h1v1l-2,4l2,6h1v-1h2v-4l2-2v-1l-1-2v-3l3-4l1-3h2L11,2z M9.279,7l-1.177,3.53
			L5,14.667v3.569l1,2v0.35l-2,2V26H2.387L1.08,22.077L3,18.236V16H2v-2.586L2.414,13H4V8.192L5.677,4H7V3h2V1.414l1.066,1.066
			L10.819,7H9.279z"/>
	</g>
</g>
</svg>
